<?xml version="1.0" encoding="UTF-8"?>
<svg width="700pt" height="700pt" version="1.1" viewBox="0 0 700 550 " xmlns="http://www.w3.org/2000/svg" xmlns:xlink="http://www.w3.org/1999/xlink">
    <path d="m547.23 447.16-131.83-215.45 16.273-53.078c11.07-36.09 16.695-73.633 16.691-111.39 0-2.6406-1.7227-4.9727-4.25-5.75l-21.52-6.6055c-8.8438-3.207-17.891-5.8242-27.078-7.8359-1.7812-0.38672-3.6406 0.050781-5.0586 1.1914-1.418 1.1406-2.2422 2.8633-2.2422 4.6875v33.559c0 3.9961-0.63281 7.9648-1.8711 11.762-7.5547 1.7578-15.926 4.8594-22.918 10.32h-26.855c-6.9922-5.4609-15.363-8.5625-22.918-10.32h-0.003906c-1.2383-3.7969-1.8711-7.7656-1.8711-11.762v-33.461c0-1.8242-0.82812-3.5469-2.25-4.6914-1.4219-1.1406-3.2812-1.5742-5.0625-1.1836-8.7656 1.9375-17.398 4.4297-25.848 7.457l-22.719 6.8789h0.003906c-2.5391 0.76562-4.2734 3.1055-4.2734 5.7578-0.003906 37.75 5.6211 75.293 16.691 111.38l16.273 53.078-131.83 215.45c-0.83984 1.3594-1.1055 3-0.73047 4.5547 0.37109 1.5547 1.3438 2.8984 2.7109 3.7344 1.3633 0.83594 3.0039 1.0898 4.5586 0.71484 1.5547-0.37891 2.8945-1.3594 3.7227-2.7266l131.48-214.88h83.062c3.3203 0 6.0156-2.6953 6.0156-6.0156 0-3.3242-2.6953-6.0156-6.0156-6.0156h-81.984l-15.762-51.414-0.003906-0.003906c-10.281-33.52-15.715-68.34-16.133-103.4l18.562-5.6211c0.097656-0.03125 0.19531-0.0625 0.29297-0.097657 5.6172-2.0195 11.379-3.8008 17.203-5.3203v25.828c0.003906 3.2812 0.32812 6.5547 0.97266 9.7734-0.43359-0.035156-0.875-0.070312-1.2812-0.097656v-0.003906c-4.168-0.26953-8.2617 1.1953-11.309 4.0508-3.0469 2.8555-4.7734 6.8438-4.7734 11.02v36.988c0 4.0078 1.5898 7.8477 4.4219 10.68s6.6758 4.4258 10.68 4.4219c0.32422 0 0.65234-0.011719 0.97656-0.03125 9.0352-0.59375 25.398-3.0469 37.465-12.656 0.38672-0.11328 0.76562-0.26562 1.1211-0.45312h23.953c0.35938 0.1875 0.73438 0.33984 1.1211 0.45312 12.062 9.6055 28.43 12.062 37.465 12.656 0.32812 0.019531 0.65234 0.03125 0.97656 0.03125 4.0039 0.003906 7.8477-1.5898 10.68-4.4219s4.4258-6.6719 4.4219-10.68v-36.988c0.003906-4.1758-1.7266-8.1641-4.7734-11.02-3.0469-2.8555-7.1406-4.3203-11.305-4.0469-0.40625 0.027344-0.84766 0.0625-1.2812 0.097656 0.64062-3.2188 0.96875-6.4922 0.96875-9.7734v-25.941c6.2266 1.6094 12.383 3.5156 18.379 5.6992 0.097656 0.035156 0.19141 0.066406 0.29297 0.097656l17.387 5.3398v-0.003906c-0.41797 35.07-5.8516 69.895-16.137 103.42l-17.066 55.668c-0.50391 1.6484-0.27734 3.4336 0.62109 4.9023l130.1 212.62-3.5781 2.1797c-51.5 31.371-110.29 48.758-170.57 50.438-60.273 1.6797-119.95-12.406-173.11-40.859-1.4062-0.76172-3.0586-0.92969-4.5898-0.46875-1.5312 0.46094-2.8164 1.5117-3.5703 2.9219-0.75391 1.4102-0.91797 3.0625-0.45312 4.5898 0.46484 1.5312 1.5234 2.8125 2.9336 3.5625 52.055 27.84 110.17 42.41 169.2 42.418 3.1992 0 6.4062-0.042969 9.6133-0.12891 62.473-1.7109 123.41-19.703 176.8-52.199l8.7266-5.3164c1.3633-0.82812 2.3398-2.168 2.7188-3.7227 0.375-1.5508 0.11719-3.1914-0.71875-4.5508zm-218.04-305.76c-9.8984 7.7305-24.465 9.4922-30.543 9.8906v0.003907c-0.84375 0.058593-1.6758-0.23828-2.2891-0.82031-0.625-0.58203-0.97656-1.3945-0.97266-2.2461v-36.988c-0.003906-0.84766 0.34766-1.6562 0.96484-2.2383 0.61719-0.57812 1.4492-0.87891 2.2969-0.82422 6.0781 0.39844 20.648 2.1602 30.543 9.8906zm29.578-3.2422h-17.547v-17.547h17.547zm42.574-29.98c0.84375-0.058593 1.6758 0.23828 2.2891 0.82031 0.625 0.57812 0.97656 1.3945 0.97266 2.2422v36.988c0.003906 0.84766-0.34766 1.6602-0.96484 2.2383-0.61719 0.58203-1.4492 0.87891-2.2969 0.82422-6.0781-0.39844-20.648-2.1602-30.543-9.8906v-23.332c9.8984-7.7305 24.465-9.4922 30.543-9.8906z"/>
</svg>
