<?xml version="1.0" encoding="UTF-8"?>
<svg width="700pt" height="700pt" version="1.1" viewBox="30 30 650 500" style="fill: #36594C;" xmlns="http://www.w3.org/2000/svg" xmlns:xlink="http://www.w3.org/1999/xlink">
  <path d="m516.53 425.13-41.523-175.46c0.14453-2.4648 0.24609-4.9453 0.24609-7.4453-1.2305-3.5-4.4805-5.8867-8.1914-6.0156h-17.145v-50.5c0-35.695-19.043-68.684-49.961-86.531-30.914-17.848-69-17.848-99.914 0-30.918 17.848-49.961 50.836-49.961 86.531v50.5h-17.145c-0.36719 0.003906-0.73047 0.035156-1.0859 0.10547-1.7578-0.33203-3.5703 0.13672-4.9453 1.2812-1.375 1.1445-2.1641 2.8398-2.1602 4.6289 0 2.5 0.10156 4.9805 0.24609 7.4453l-41.523 175.46c-2.8086 11.867-0.035156 24.367 7.5312 33.93 7.5664 9.5664 19.09 15.145 31.285 15.145h255.43c12.195 0 23.719-5.5781 31.285-15.145 7.5664-9.5625 10.34-22.062 7.5312-33.93zm-254.42-239.42c0-31.398 16.75-60.41 43.945-76.109 27.191-15.699 60.691-15.699 87.887 0 27.191 15.699 43.941 44.711 43.941 76.109v50.5h-175.77zm-24.418 62.531h224.61l0.58203 2.4609 0.003906 0.003906c-1.7031 22.203-9.9023 43.414-23.574 60.992-13.672 17.574-32.215 30.742-53.316 37.852-6.1719-9.7734-19.797-16.414-36-16.414-16.199 0-29.824 6.6445-36 16.414-21.102-7.1094-39.645-20.277-53.316-37.852-13.672-17.578-21.871-38.789-23.574-60.992zm139.82 113.22c0 8.832-12.602 16.297-27.516 16.297s-27.516-7.4648-27.516-16.297c0-8.832 12.602-16.297 27.516-16.297 14.914 0.003907 27.516 7.4648 27.516 16.297zm122.05 90.137c-5.2656 6.6992-13.324 10.598-21.848 10.574h-255.43c-8.5156 0.003906-16.566-3.8945-21.848-10.574-5.2852-6.6797-7.2227-15.406-5.2617-23.695l35.176-148.64c12.031 38.539 41.832 68.965 80.117 81.793-0.003906 0.13281-0.015625 0.26562-0.015625 0.40234 0 15.887 17.371 28.328 39.547 28.328s39.547-12.441 39.547-28.328c0-0.13672-0.011719-0.26953-0.015625-0.40234 38.285-12.828 68.086-43.254 80.117-81.793l35.176 148.64c1.9844 8.2891 0.042969 17.027-5.2617 23.695z"/>
</svg>
