<?xml version="1.0" encoding="UTF-8"?>
<svg width="700pt" height="700pt" version="1.1" viewBox="50 50 600 450" xmlns="http://www.w3.org/2000/svg" xmlns:xlink="http://www.w3.org/1999/xlink">
  <path d="m499.38 260.89-145.45-65.18c-12.664-5.6758-28.156-2.0234-36.031 8.5l-9.3164 12.445c-9.7031 12.961-26.238 20.699-44.23 20.699l-13.621-0.003906c-7.9219 0.015625-15.77-1.5586-23.074-4.6289l-4.5312-2.1719c-9.6797-5.1797-17.355-13.031-21.395-22.598-5.9844-14.176-10.762-15.281-24.008-15.043-1.6562 0.03125-3.5117 0.066406-5.6094 0.066406l-11.746-0.003906c-3.3242 0-6.0156 2.6953-6.0156 6.0156v162.14c0 3.3203 2.6914 6.0156 6.0156 6.0156h379.27c3.3242 0 6.0156-2.6953 6.0156-6.0156v-34.066c0-28.113-17.734-53.473-46.273-66.176zm-4.9062 10.984c23.789 10.59 38.688 31.273 39.125 54.16h-317.75c5.8711-3.0273 12.016-5.4883 18.348-7.3516 7.5117-2.2344 15.168-3.9609 22.91-5.1719 21.32-3.4336 46.805-4.2617 75.742-2.4648 55.383 3.4375 96.203-8.332 120.7-18.812 19.832-8.4844 32.414-17.43 37.855-21.73zm-328.09-66.871 20.109 0.4375c1.3086 0.72266 3 4.4492 4.1562 7.1914v-0.003906c4.9219 11.23 13.27 20.613 23.848 26.812-17.055 28.039-38.746 30.348-48.113 29.855zm0 76.289c0.61328 0.023438 1.2617 0.035157 1.9375 0.035157 5.3281-0.007813 10.629-0.75391 15.75-2.2188 11.707-3.3398 27.992-12.055 41.277-34.387 8.1094 3.0859 16.711 4.6641 25.383 4.6602h13.625c21.766 0 41.898-9.5391 53.859-25.52l9.3164-12.445c4.5117-6.0273 13.949-8.1055 21.48-4.7266l34.16 15.309-20.648 24.066c-2.1602 2.5195-1.8711 6.3203 0.65234 8.4805 2.5195 2.1641 6.3203 1.875 8.4805-0.64844l22.961-26.77 27.125 12.156-20.344 23.719c-2.1641 2.5195-1.8711 6.3164 0.64844 8.4805 2.5234 2.1641 6.3203 1.875 8.4844-0.64844l22.664-26.422 45.586 20.43c-9.5938 6.5508-19.832 12.102-30.555 16.574-23.207 9.8438-61.934 20.887-114.63 17.617-29.824-1.8516-56.199-0.97656-78.398 2.5938l-0.003906 0.003906c-8.2773 1.2969-16.461 3.1445-24.492 5.5391-21.309 6.4688-31.457 14.684-35.523 18.863h-28.793zm367.23 73.824h-367.23v-17.051h367.23z"/>
</svg>
