<?xml version="1.0" encoding="UTF-8"?>
<svg width="700pt" height="700pt" version="1.1" viewBox="50 30 600 500" style="fill: #36594C;" xmlns="http://www.w3.org/2000/svg" xmlns:xlink="http://www.w3.org/1999/xlink">
  <path d="m350 437.36c-3.9219 0-7.2812-2.2383-9.5195-5.0391l-21.84-34.719h-114.24c-15.68 0-28-12.32-28-28v-179.2c0-15.68 12.32-28 28-28h291.2c15.68 0 28 12.32 28 28v179.2c0 15.68-12.32 28-28 28l-114.24 0.003906-21.84 34.719c-2.2383 3.3594-5.5977 5.0391-9.5195 5.0391zm-145.6-263.76c-9.5195 0-16.801 7.2812-16.801 16.801v179.2c0 9.5195 7.2812 16.801 16.801 16.801h114.24c3.9219 0 7.2812 2.2383 9.5195 5.0391l21.84 34.719 21.84-34.719c2.2383-3.3594 5.6016-5.0391 9.5195-5.0391l114.25-0.003906c9.5195 0 16.801-7.2812 16.801-16.801l-0.003906-179.2c0-9.5195-7.2812-16.801-16.801-16.801z"/>
  <path d="m361.2 280c0 6.1875-5.0117 11.199-11.199 11.199s-11.199-5.0117-11.199-11.199 5.0117-11.199 11.199-11.199 11.199 5.0117 11.199 11.199"/>
  <path d="m406 280c0 6.1875-5.0156 11.199-11.199 11.199-6.1875 0-11.199-5.0117-11.199-11.199s5.0117-11.199 11.199-11.199c6.1836 0 11.199 5.0117 11.199 11.199"/>
  <path d="m316.4 280c0 6.1875-5.0117 11.199-11.199 11.199-6.1836 0-11.199-5.0117-11.199-11.199s5.0156-11.199 11.199-11.199c6.1875 0 11.199 5.0117 11.199 11.199"/>
</svg>
