<?xml version="1.0" encoding="UTF-8"?>
<svg width="700pt" height="700pt" version="1.1" viewBox="50 50 600 450" style="fill: #36594C;" xmlns="http://www.w3.org/2000/svg" xmlns:xlink="http://www.w3.org/1999/xlink">
  <path d="m439.21 320.76-66.441-47.312v-156.78c0-3.3203-2.6953-6.0156-6.0156-6.0156h-129.68c-3.3242 0-6.0156 2.6953-6.0156 6.0156v193.89c0.019531 22.547 10.926 43.699 29.277 56.797l96.668 68.836c11.941 8.5547 26.262 13.156 40.949 13.156 3.9883 0 7.9688-0.33594 11.902-0.99609 18.531-3.1172 35.062-13.469 45.965-28.773 10.902-15.309 15.273-34.316 12.16-52.848-3.1172-18.531-13.465-35.066-28.773-45.969zm-196.12-160.75h117.64v22.258h-117.64zm117.64-37.328v25.297h-117.64v-25.297zm-117.64 187.88v-29.777c21.535 2.6484 40.438 15.602 50.672 34.73 10.234 19.129 10.527 42.043 0.77734 61.426l-27.223-19.387c-15.188-10.836-24.211-28.336-24.227-46.992zm202.93 102.04c-8.5977 12.078-21.441 20.465-35.957 23.473-14.516 3.0117-29.633 0.42969-42.324-7.2344 11.562-30.777 31.418-57.758 57.375-77.945 1.2695-0.97656 2.0938-2.418 2.2969-4.0078 0.19922-1.5898-0.24219-3.1914-1.2266-4.457-0.98438-1.2617-2.4336-2.0781-4.0234-2.2695-1.5898-0.19141-3.1875 0.25781-4.4453 1.25-26.898 20.926-47.672 48.699-60.152 80.414l-53.121-37.828c12.316-23.125 12.32-50.859 0.015626-73.992-12.305-23.129-35.309-38.621-61.367-41.332v-74.371h117.64v82.25c0 1.9453 0.94141 3.7734 2.5234 4.9023l68.969 49.113c12.691 9.0625 21.273 22.785 23.859 38.168 2.5859 15.379-1.0352 31.156-10.066 43.867z"/>
</svg>
