<?xml version="1.0" encoding="UTF-8"?>
<svg width="700pt" height="700pt" version="1.1" viewBox="0 0 700 600" style="fill: #36594C;" xmlns="http://www.w3.org/2000/svg" xmlns:xlink="http://www.w3.org/1999/xlink">
  <path d="m535.35 299.45-80.859-80.859c-2.2422-2.2422-5.8398-2.3594-8.2227-0.26953l-63.742 55.934v-193.54c0-3.3242-2.6914-6.0156-6.0156-6.0156h-163.81c-3.3203 0-6.0156 2.6914-6.0156 6.0156v37.215l-43.359 108.38v-0.003906c-0.43359 1.082-0.54297 2.2695-0.3125 3.4141l50.055 250.74c0.5625 2.8125 3.0312 4.8359 5.8984 4.8359h157.55c2.3477-0.66797 4.5078-1.8633 6.3125-3.5039l152.8-174.12c2.0898-2.3828 1.9727-5.9805-0.26953-8.2227zm-316.64-212.72h151.78v26.344l-151.78-0.003907zm155.59 386.54-150.4-0.003907-48.738-244.15 41.613-104.02 153.72-0.003907v315.9c0 3.3242 2.6953 6.0156 6.0156 6.0156 3.3242 0 6.0156-2.6914 6.0156-6.0156v-150.74l67.441-59.18 72.891 72.891z"/>
  <path d="m325.27 171.44h-88.746c-3.3242 0-6.0156 2.6953-6.0156 6.0156v74.59c0 2.168 1.168 4.1719 3.0586 5.2383l44.375 25.055h-0.003906c1.8359 1.0352 4.082 1.0352 5.918 0l44.375-25.055h-0.003906c1.8906-1.0664 3.0586-3.0703 3.0586-5.2383v-38.641-0.023438-35.926c0-3.3203-2.6914-6.0156-6.0156-6.0156zm-6.0156 77.09-38.359 21.66-38.359-21.66 0.003907-31.023 3.9922-1.4336v-0.003907c6.9258-2.5039 14.648-1.293 20.473 3.2148l10.223 7.8711c2.1719 1.6758 5.207 1.6641 7.3711-0.023438l9.7812-7.625h-0.003906c5.6875-4.4414 13.219-5.7422 20.066-3.4688l4.8125 1.5938zm0-43.574-1.0273-0.33984v0.003906c-10.664-3.5469-22.395-1.5195-31.25 5.3984l-6.1016 4.7578-6.5312-5.0273c-9.0469-6.9961-21.039-8.8945-31.805-5.0234v-21.254h76.715z"/>
</svg>
